<svg id="Layer_1" data-name="Layer 1" xmlns="http://www.w3.org/2000/svg" xmlns:xlink="http://www.w3.org/1999/xlink" viewBox="0 0 1473.43 344.57"><defs><style>.cls-1{fill:#8bc441;}.cls-2{fill:#097785;}.cls-3{fill:url(#linear-gradient);}.cls-4{fill:url(#linear-gradient-2);}</style><linearGradient id="linear-gradient" x1="477.06" y1="93.54" x2="548.8" y2="212.94" gradientUnits="userSpaceOnUse"><stop offset="0" stop-color="#31bdb3"/><stop offset="0.53" stop-color="#097785"/></linearGradient><linearGradient id="linear-gradient-2" x1="418.85" y1="240.28" x2="651.77" y2="141.41" gradientUnits="userSpaceOnUse"><stop offset="0" stop-color="#31bdb3"/><stop offset="0.68" stop-color="#097785"/></linearGradient></defs><title>LogoLudesc</title><path class="cls-1" d="M1399.26,187c-3.83.92-4,5.53-7.52,7.11-3.18,1.42-6,3-9.71,2.93-11-.19-22-.09-33-.07q-12.73,0-12.76,12.73c0,10.79-.21,21.6.06,32.39.27,10.39-9.13,18.56-17.76,17.79-5-.45-10-.09-15-.1-10.41,0-17.28-6.94-17.3-17.44s0-21.26,0-31.89c0-9.3-4.23-13.46-13.71-13.49-11,0-22-.34-33,.1-8.5.34-16.16-8.54-16.24-16-.06-5.32.39-10.67-.1-15.94-1-10.4,9.73-18.07,17.85-18,11,.07,22-.44,32.94.19,6.89.4,12.37-5,12.25-12.3-.16-10.8,0-21.6,0-32.39,0-9.41,4.31-15.32,13.6-17.41a50.25,50.25,0,0,1,24.1.23c7.55,2,12.14,8.71,12.18,16.59,0,11,0,21.93,0,32.89,0,8.22,4,12.22,12.11,12.22,10.15,0,20.31.07,30.46,0,8-.07,14.64,2.33,18.35,10,.47,1,1.15,1,2,1Zm-101.92-60v14.6c0,9.94-6.74,16.55-16.85,16.54-8.16,0-16.33-.23-24.48,0-12.3.4-16.51,4-15.71,15.46.6,8.54,2.78,11.19,11.26,12.53,10.43,1.65,20.89.58,31.33.85a15.64,15.64,0,0,1,15.41,15.25c.13,9.13-.21,18.28.14,27.41.49,12.8,1.89,15.9,15.07,15.41,5.73-.21,8.62-2.51,10.26-7.29a25.47,25.47,0,0,0,1.62-8.7c-.14-9.14-.06-18.28-.05-27.42,0-8.4,6.15-14.62,14.45-14.62h18c4.81,0,9.59.06,14.34-1,4.48-1,8.83-3,9.64-7.45.94-5.16,2-10.85-1.44-15.82a6.75,6.75,0,0,0-4.14-2.56,32.25,32.25,0,0,0-7.81-1.15c-8.66.15-17.32.06-26,.06-10.38,0-16.82-6.57-17.1-16.92-.3-11.41,1.16-22.87-1-34.23-1.2-6.47-4.77-10.41-9.83-10.67-10.33-.52-13.74,1.42-16,9.12C1296.34,113.49,1297.82,120.83,1297.34,126.93Z"/><path class="cls-2" d="M247.21,142.59c0-20.93.11-41.87-.09-62.8,0-3.82,1-4.73,4.72-4.58,7.65.29,15.32.3,23,0,3.76-.16,4.66.91,4.65,4.64-.15,40.7-.25,81.41,0,122.12.08,12.12,2.85,23.81,12.16,32.5,6.69,6.25,15,9.26,24.21,10.5a65.5,65.5,0,0,0,21.91-1.15c15.94-3.19,25.26-13,29.32-28.31,1.73-6.55,1.87-13.35,1.91-20,.27-38.38.2-76.76,0-115.14,0-4.11.93-5.38,5.15-5.18,7.81.38,15.65.22,23.47,0,2.78-.07,3.68.67,3.68,3.57-.09,41.87.63,83.75-.31,125.6-.61,27.17-12.81,48.79-38.15,61-16.08,7.73-33.22,9.95-51.16,7.53-14.75-2-28.09-6.4-39.83-15.79-12.31-9.84-19.39-22.59-22.62-37.7-3.63-17-1.55-34.26-2-51.41C247,159.54,247.21,151.07,247.21,142.59Z"/><path class="cls-2" d="M1180.93,214.88c-7,17.67-17.66,31.5-32.89,41.72-9.52,6.38-19.8,11.34-31.14,13.34a225.43,225.43,0,0,1-22.46,3.06c-14.68,1.11-28.55-1.28-42.15-6.25-17.86-6.53-32.26-17.69-43.73-32.75a91.4,91.4,0,0,1-18.66-45.9c-3.18-29,2.26-56.08,21.53-79.34,16.16-19.5,36.78-31,61.68-34.5,28.48-4,55.23.83,78.81,18.13,12.81,9.39,21.65,22.07,28,36.56,1.1,2.53.49,3.29-2.08,3.29q-16.47,0-33,0c-2,0-2.74-1-3.68-2.61-5.32-8.75-11.65-16.4-21-21.35a62.08,62.08,0,0,0-22.66-6.92c-6.91-.72-14.3-1.46-20.88.2-10.42,2.63-20.79,6.22-29.34,13.42-17.16,14.44-24.25,33.19-24.65,55.17-.24,13.46,1.24,26.46,7.05,38.73,7.59,16,19.89,27.06,36.61,32.76,20.57,7,40.42,5.41,58.88-6.81a47.15,47.15,0,0,0,15.22-16.8c.73-1.3.82-3.2,3.1-3.19C1155.73,214.91,1168,214.88,1180.93,214.88Z"/><path class="cls-2" d="M806,217.8c10.87,0,21.67.09,32.46-.07,2.57,0,2.65,1.72,2.85,3.12.83,5.64,3.62,10.44,6.61,15,3.84,5.89,10.45,7.4,16.69,9.19,11.87,3.4,23.37,2.1,33.85-4.31,12.82-7.85,15-20.58,11-33-1.9-5.87-7.05-9.7-12.39-12.67-11.36-6.32-24.21-8.3-36.42-12.16-14.7-4.64-30.16-7.9-41.27-19.86s-14-26.45-11.92-42.59a50.29,50.29,0,0,1,14.09-29.33,55.85,55.85,0,0,1,29.37-15.7c19.74-4,39.64-4.5,58.41,4.17,16.94,7.83,28,20.88,31.44,39.69.2,1.12.48,2.23.75,3.34.58,2.39.14,3.66-2.82,3.62-10-.15-20-.09-30,0-1.85,0-2.64-.23-3.17-2.5-3.62-15.47-16.92-22.35-30.22-23.39-9.89-.78-19.55.57-27.3,7.27-11.24,9.71-13.56,31.45,6.41,41.61,9,4.59,18.83,7,28.51,9.83,14,4.07,28.5,7.36,40.62,16,12.51,8.9,19.6,21,20.21,36.84C944.48,230,938.43,245,925,257c-9.87,8.82-21.72,13.47-34.64,15.8a76.55,76.55,0,0,1-18.24,1c-20.1-1.22-38.71-6.12-52.89-21.85-7.46-8.27-12.07-17.63-12.56-28.86C806.61,221.43,806.25,219.85,806,217.8Z"/><path class="cls-2" d="M643.94,173.26c0-31.06.08-62.13-.09-93.19,0-3.91.94-4.89,4.87-4.87q49.44.26,98.86,0c4.15,0,5.67,1.14,5.43,5.36a162,162,0,0,0,0,16.93c.16,3.23-1,3.8-4,3.78-22.3-.12-44.61,0-66.91-.16-4.1,0-5.29.92-5.22,5.14q.4,24.17,0,48.33c-.06,3.94,1.24,4.57,4.79,4.54,19.64-.17,39.28,0,58.92-.16,3.47,0,4.6.8,4.42,4.35-.31,6-.28,12,0,17.93.15,3.22-1,3.82-3.95,3.8-19.8-.13-39.61,0-59.41-.16-3.6,0-4.83.7-4.77,4.58q.35,25.91,0,51.82c-.06,4,1.36,4.51,4.83,4.49,22.14-.14,44.28,0,66.41-.17,4,0,5.09,1.11,4.88,5-.32,6-.21,12,0,17.93.09,2.69-.87,3.33-3.43,3.33q-51.18-.12-102.35,0c-3.93,0-3.25-2.21-3.25-4.45Q643.94,220.34,643.94,173.26Z"/><path class="cls-2" d="M103.35,173.35c0-31,.05-62.11-.08-93.16,0-3.68.62-5.21,4.79-5a223.69,223.69,0,0,0,23.45,0c4.45-.24,5,1.37,5,5.28-.13,53.14,0,106.28-.2,159.41,0,4.71,1,6.07,5.89,6,18.63-.34,37.28,0,55.91-.23,3.56,0,4.51,1,4.34,4.44-.31,6.13-.21,12.29,0,18.43.08,2.6-.69,3.39-3.33,3.38q-46.17-.12-92.35,0c-3.77,0-3.39-2-3.39-4.37Q103.36,220.43,103.35,173.35Z"/><path class="cls-3" d="M584.07,72.5c-17.39,0-34.77-1.08-52.17.73a113.62,113.62,0,0,0-39.5,11.54,123.51,123.51,0,0,0-45.7,38.91c-13,18.1-21.16,38.12-22.18,60-1.34,28.3-.25,56.72-.21,85.08.26,4.32,3.05.95,3.69.75,16.94-5.12,33.66-10.81,50.07-17.52,22.21-9.08,42.8-20.74,60.79-36.55,19.79-17.38,34.75-38.65,46.89-61.85Q600,126.34,612,98c3.59-8.44,7.31-16.83,11.09-25.5Z"/><path class="cls-4" d="M624,92V75.91C613,110,602.14,144,583.86,175c-4.05,6.44-7.45,13.42-12.28,19.22-9,10.83-18.06,21.64-29,30.8C524.77,239.9,504,249.09,483,257.9c-9.65,4.59-19.88,7.44-30.29,9.67-4.46,1-8.88,2.33-13.54,2.09-2.52-.2-4.68,1-7,2h5.74c21.79,0,43.57-.14,65.35,0,18.66.16,36.21-4.48,52.7-12.61a119.26,119.26,0,0,0,50.69-46.75c3.78-6.36,7.86-12.79,9.3-20.31a88.1,88.1,0,0,0,7.78-34.88C624.35,135.48,624,113.74,624,92Z"/><path class="cls-2" d="M483,257.9c-9.65,4.59-19.88,7.44-30.29,9.67-4.46,1-8.88,2.33-13.54,2.09C454,266.45,468.39,261.86,483,257.9Z"/></svg>